<?xml version="1.0" encoding="UTF-8" standalone="no"?>
<svg
   height="250"
   viewBox="0 -960 768 600"
   width="300"
   fill="#fffff"
   version="1.1"
   id="svg1"
   sodipodi:docname="brev.svg"
   xmlns:inkscape="http://www.inkscape.org/namespaces/inkscape"
   xmlns:sodipodi="http://sodipodi.sourceforge.net/DTD/sodipodi-0.dtd"
   xmlns="http://www.w3.org/2000/svg"
   xmlns:svg="http://www.w3.org/2000/svg">
  <defs
     id="defs1" />
  <sodipodi:namedview
     id="namedview1"
     pagecolor="#ffffff"
     bordercolor="#999999"
     borderopacity="1"
     inkscape:showpageshadow="2"
     inkscape:pageopacity="0"
     inkscape:pagecheckerboard="0"
     inkscape:deskcolor="#d1d1d1"
     inkscape:export-bgcolor="#ffffff00" />
  <rect
     style="fill:#ffffff;stroke-width:2.97351"
     id="rect1"
     width="768"
     height="600"
     x="2.8421709e-14"
     y="-960"
     ry="97.162201"
     rx="65.440521" />
  <path
     d="M 57.6,-360 Q 34.56,-360 17.28,-376.875 0,-393.75 0,-416.25 v -487.5 q 0,-22.5 17.28,-39.375 Q 34.56,-960 57.6,-960 h 652.8 q 23.04,0 40.32,16.875 17.28,16.875 17.28,39.375 v 487.5 q 0,22.5 -17.28,39.375 Q 733.44,-360 710.4,-360 Z M 384,-643.125 57.6,-852.1875 V -416.25 h 652.8 v -435.9375 z m 0,-56.25 322.56,-204.375 H 62.4 Z M 57.6,-852.1875 v -51.5625 487.5 z"
     id="path1"
     style="fill:#000000;stroke-width:0.948683" />
</svg>
